<svg id="svg" version="1.1" xmlns="http://www.w3.org/2000/svg" xmlns:xlink="http://www.w3.org/1999/xlink" width="400" height="400" viewBox="0, 0, 400,400"><g id="svgg"><path id="path0" d="M168.118 78.100 C 163.962 81.679,160.212 86.749,157.469 92.500 C 155.478 96.675,155.750 96.559,149.321 95.975 C 134.322 94.612,124.391 97.929,114.819 107.498 C 110.576 111.740,110.147 112.061,109.019 111.846 C 108.348 111.719,106.511 111.353,104.935 111.034 C 98.355 109.701,89.028 109.911,86.420 111.452 C 84.029 112.864,82.377 119.026,82.199 127.200 C 82.129 130.390,82.142 132.280,82.227 131.400 C 83.505 118.172,85.383 113.796,90.400 112.357 C 94.285 111.243,109.347 112.008,111.659 113.437 C 111.839 113.548,113.930 111.695,116.306 109.320 C 126.116 99.509,136.147 96.384,153.923 97.600 L 156.845 97.800 158.737 94.200 C 163.713 84.734,169.551 78.597,173.836 78.324 L 175.800 78.199 174.251 77.500 C 171.796 76.390,169.886 76.577,168.118 78.100 M232.769 79.578 C 231.796 80.227,229.830 81.975,228.400 83.464 C 226.970 84.953,226.250 85.818,226.800 85.386 C 227.350 84.954,227.890 84.508,228.000 84.395 C 229.449 82.905,232.557 80.785,233.864 80.394 C 235.488 79.907,235.943 79.968,238.547 81.020 C 239.795 81.524,238.599 79.723,237.208 79.004 C 235.544 78.144,234.772 78.244,232.769 79.578 M143.200 91.227 C 143.200 91.432,143.770 91.600,144.467 91.600 C 145.911 91.600,145.712 91.122,144.201 90.961 C 143.650 90.903,143.200 91.022,143.200 91.227 M247.600 97.492 C 247.600 98.356,248.716 98.739,252.000 99.001 C 253.870 99.151,256.030 99.419,256.800 99.597 C 257.570 99.774,258.718 100.037,259.352 100.180 C 262.320 100.852,258.054 111.452,252.447 117.339 C 249.414 120.522,242.367 124.800,240.156 124.800 C 239.860 124.800,239.309 125.295,238.930 125.900 C 238.552 126.505,238.186 127.077,238.117 127.171 C 238.048 127.265,237.754 127.017,237.464 126.619 C 237.011 126.001,236.220 125.882,231.968 125.791 C 222.930 125.599,212.522 120.181,210.383 114.556 C 209.897 113.276,209.806 113.303,206.713 115.626 C 189.666 128.430,190.912 144.377,210.309 161.653 C 213.212 164.238,213.605 164.748,213.509 165.800 C 213.360 167.435,211.223 167.737,209.729 166.334 L 208.747 165.410 207.970 166.405 C 207.120 167.494,203.470 174.518,203.024 175.923 C 202.752 176.782,202.822 176.800,206.473 176.814 C 216.688 176.853,224.202 181.771,225.048 188.970 L 225.310 191.200 235.855 191.200 L 246.400 191.200 246.400 189.633 C 246.400 180.733,259.374 174.347,271.200 177.426 C 285.313 181.100,295.176 171.833,295.194 154.881 L 295.200 149.161 297.832 145.496 C 300.874 141.259,303.064 137.604,304.600 134.200 C 309.978 122.280,309.580 120.499,301.200 118.986 C 300.430 118.846,295.852 118.613,291.027 118.466 L 282.255 118.200 281.071 116.000 C 275.936 106.457,268.402 100.517,258.766 98.414 C 254.332 97.446,247.600 96.890,247.600 97.492 M94.189 105.617 C 94.116 105.736,94.571 105.873,95.201 105.921 C 95.832 105.969,96.432 105.872,96.536 105.704 C 96.639 105.537,96.184 105.400,95.524 105.400 C 94.864 105.400,94.263 105.498,94.189 105.617 M81.829 109.029 C 81.405 109.338,81.172 109.705,81.310 109.843 C 81.449 109.982,81.862 109.795,82.229 109.429 C 83.091 108.566,82.825 108.300,81.829 109.029 M139.035 125.231 C 137.410 127.163,137.355 127.599,137.588 136.800 C 137.772 144.053,134.596 148.176,125.200 152.880 C 115.752 157.610,110.875 167.772,113.401 177.467 C 114.307 180.946,114.608 181.102,117.650 179.681 C 131.092 173.403,145.793 178.046,147.152 189.000 L 147.400 191.000 154.795 191.000 L 162.190 191.000 162.455 189.148 C 163.904 179.020,179.362 173.064,190.138 178.482 C 192.110 179.473,192.424 179.211,194.889 174.504 C 197.100 170.282,198.636 165.537,199.347 160.735 L 199.874 157.174 197.678 154.287 C 196.470 152.699,195.052 150.410,194.527 149.200 C 194.002 147.990,193.406 146.640,193.203 146.200 C 192.309 144.269,191.200 140.141,191.200 138.746 C 191.200 137.347,191.030 137.116,189.090 135.875 C 182.660 131.761,176.165 131.153,167.000 133.805 C 159.405 136.002,152.920 134.247,148.927 128.912 C 145.209 123.943,141.333 122.501,139.035 125.231 M77.334 125.027 C 77.202 125.372,77.298 125.858,77.547 126.107 C 77.884 126.444,78.000 126.284,78.000 125.480 C 78.000 124.277,77.701 124.073,77.334 125.027 M303.200 127.486 C 303.200 129.424,302.781 131.041,301.538 133.896 C 301.132 134.828,300.800 135.686,300.800 135.803 C 300.800 135.919,300.080 137.200,299.200 138.648 C 298.320 140.097,297.600 141.430,297.600 141.612 C 297.600 142.202,295.515 143.600,294.635 143.600 C 292.504 143.600,290.768 140.229,290.132 134.852 C 289.637 130.677,293.298 127.168,300.000 125.393 C 302.531 124.723,303.200 125.160,303.200 127.486 M247.615 134.296 C 253.423 137.395,253.139 141.200,247.099 141.200 C 242.377 141.200,244.239 147.351,249.384 148.751 C 250.995 149.189,252.800 148.576,252.800 147.591 C 252.800 147.376,253.090 147.200,253.443 147.200 C 253.945 147.200,254.026 147.443,253.814 148.300 C 253.348 150.175,252.069 151.200,250.192 151.200 C 249.079 151.200,248.302 151.445,247.856 151.938 C 243.630 156.607,232.803 151.359,232.799 144.639 C 232.798 143.307,232.520 142.145,231.999 141.290 C 230.978 139.617,230.987 138.378,232.029 137.054 C 233.238 135.517,233.718 135.717,233.396 137.625 C 232.950 140.266,235.883 142.400,239.959 142.400 C 242.352 142.400,243.844 140.307,242.390 138.991 C 240.734 137.492,240.444 134.413,241.829 133.028 C 242.813 132.044,243.802 132.261,247.615 134.296 M77.326 133.590 C 77.507 134.780,77.840 134.907,77.840 133.787 C 77.840 133.244,77.697 132.800,77.523 132.800 C 77.348 132.800,77.259 133.155,77.326 133.590 M269.669 136.472 C 273.795 137.386,276.800 140.304,276.800 143.395 C 276.800 145.159,276.137 145.208,274.575 143.560 C 271.520 140.336,268.563 139.200,263.223 139.200 C 258.370 139.200,259.295 137.769,265.000 136.450 C 267.207 135.940,267.270 135.940,269.669 136.472 M154.981 142.064 C 155.857 142.463,156.063 142.893,156.100 144.400 C 156.102 144.510,155.999 145.170,155.869 145.867 C 155.576 147.440,156.810 148.001,160.560 147.999 C 164.203 147.996,166.009 146.481,167.350 142.300 C 167.826 140.817,168.800 141.523,168.800 143.351 C 168.800 146.208,166.353 150.363,164.641 150.413 C 162.800 150.466,162.648 151.542,164.159 153.817 C 166.927 157.986,167.200 158.664,167.200 161.363 C 167.200 166.496,164.430 169.639,159.808 169.750 C 154.941 169.868,151.370 165.889,149.709 158.500 C 149.484 157.497,148.752 157.379,146.858 158.040 C 144.319 158.925,138.040 156.526,138.006 154.658 C 138.003 154.470,138.765 154.435,139.700 154.580 C 146.213 155.592,148.012 155.099,149.887 151.788 C 151.054 149.728,151.043 149.661,149.440 148.991 C 145.449 147.323,146.195 144.260,151.041 142.420 C 153.447 141.506,153.706 141.483,154.981 142.064 M204.000 180.640 C 193.087 182.609,188.813 191.713,197.698 194.063 C 200.067 194.689,200.274 194.490,200.680 191.205 C 201.123 187.613,202.141 187.357,202.783 190.677 C 203.672 195.279,203.161 194.800,207.181 194.800 C 211.172 194.800,210.941 194.987,211.397 191.381 C 211.906 187.362,213.326 187.519,213.805 191.647 C 214.130 194.446,214.485 194.704,217.033 193.991 C 222.001 192.600,222.636 188.075,218.400 184.248 C 217.005 182.987,216.142 182.501,213.115 181.272 C 211.929 180.790,205.600 180.351,204.000 180.640 M261.200 180.653 C 250.894 181.947,246.168 191.708,254.742 193.990 C 257.170 194.636,257.387 194.451,257.996 191.224 C 258.552 188.276,259.670 187.326,259.901 189.604 C 259.957 190.152,260.211 191.545,260.465 192.700 L 260.928 194.800 264.437 194.800 C 268.334 194.800,268.116 194.968,268.600 191.600 C 268.974 188.997,269.191 188.400,269.764 188.400 C 270.362 188.400,271.200 190.944,271.200 192.759 C 271.200 194.360,271.905 194.643,274.260 193.983 C 281.342 192.000,279.211 184.378,270.748 181.418 C 268.919 180.778,263.599 180.352,261.200 180.653 M123.200 181.553 C 120.162 182.533,118.827 183.295,117.222 184.966 C 115.760 186.486,115.828 186.964,117.309 185.584 C 119.845 183.222,125.069 181.623,130.400 181.577 C 132.899 181.555,133.926 181.426,133.400 181.200 C 131.939 180.572,125.554 180.793,123.200 181.553 M174.628 181.659 C 169.774 183.299,164.660 188.877,166.799 190.199 C 167.019 190.336,167.200 190.202,167.200 189.902 C 167.200 186.306,175.820 181.608,182.443 181.594 C 184.500 181.590,185.217 181.470,184.800 181.200 C 183.707 180.493,177.209 180.786,174.628 181.659 M102.667 195.467 C 101.556 196.577,102.516 196.800,108.400 196.800 C 114.482 196.800,114.952 196.707,113.700 195.757 C 112.961 195.196,103.194 194.939,102.667 195.467 M144.300 195.757 C 142.999 196.745,143.581 196.800,155.100 196.787 C 166.589 196.773,166.599 196.773,165.656 195.987 C 164.453 194.984,145.585 194.781,144.300 195.757 M222.344 195.987 C 221.402 196.772,221.428 196.773,235.800 196.773 C 250.172 196.773,250.198 196.772,249.256 195.987 C 248.361 195.241,247.654 195.200,235.800 195.200 C 223.946 195.200,223.239 195.241,222.344 195.987 M279.900 195.757 C 278.612 196.735,279.157 196.800,288.600 196.800 C 297.719 196.800,298.537 196.697,297.520 195.680 C 296.802 194.962,280.856 195.031,279.900 195.757 M126.842 248.047 C 126.151 248.690,125.609 248.841,124.583 248.675 C 120.888 248.075,118.241 250.327,118.188 254.115 C 118.167 255.551,117.859 257.248,117.457 258.134 C 116.171 260.968,118.184 264.000,121.351 264.000 C 122.503 264.000,122.891 264.213,123.356 265.100 C 124.577 267.432,127.114 269.299,129.694 269.764 C 137.768 271.222,142.529 257.806,135.359 253.804 C 133.960 253.023,133.787 252.753,133.674 251.167 C 133.423 247.626,129.309 245.748,126.842 248.047 M131.122 251.266 C 131.301 253.410,128.442 254.023,127.794 251.980 C 127.292 250.400,127.939 249.545,129.534 249.678 C 130.907 249.792,131.008 249.893,131.122 251.266 M124.167 251.043 C 125.010 251.366,124.991 253.525,124.138 254.469 C 123.305 255.388,120.983 255.454,120.643 254.567 C 119.835 252.463,122.063 250.235,124.167 251.043 M152.552 255.392 C 151.848 255.947,151.199 256.907,151.061 257.595 C 150.899 258.403,150.478 258.942,149.809 259.197 C 146.833 260.328,146.485 264.533,149.234 266.157 C 150.198 266.726,150.400 267.110,150.400 268.374 C 150.400 270.129,151.143 272.111,152.399 273.708 C 157.469 280.153,168.847 271.988,165.140 264.565 C 164.328 262.941,164.317 262.786,164.940 261.836 C 166.661 259.209,164.653 256.026,161.263 256.009 C 160.143 256.003,159.165 255.716,158.509 255.200 C 157.019 254.028,154.166 254.120,152.552 255.392 M134.118 255.663 C 139.173 258.369,135.772 268.382,130.110 267.463 C 122.650 266.252,123.286 255.200,130.816 255.200 C 132.156 255.200,133.642 255.408,134.118 255.663 M156.967 256.643 C 157.816 256.969,157.773 258.781,156.900 259.443 C 155.959 260.158,154.212 260.138,153.604 259.405 C 152.226 257.745,154.651 255.754,156.967 256.643 M122.720 258.080 C 122.984 258.344,123.200 259.028,123.200 259.600 C 123.200 261.717,120.593 262.456,119.610 260.618 C 118.592 258.716,121.215 256.575,122.720 258.080 M162.562 258.522 C 164.061 259.619,162.467 262.339,160.900 261.357 C 159.554 260.514,160.078 258.000,161.600 258.000 C 161.736 258.000,162.169 258.235,162.562 258.522 M152.600 261.744 C 153.302 262.816,153.057 263.835,151.953 264.425 C 150.144 265.393,148.646 262.612,150.300 261.357 C 151.320 260.582,151.903 260.681,152.600 261.744 M160.655 263.231 C 164.496 264.644,164.936 268.450,161.628 271.644 C 157.489 275.641,152.800 273.852,152.800 268.276 C 152.800 263.927,156.349 261.648,160.655 263.231 M316.000 328.553 C 316.000 328.908,317.618 329.094,317.823 328.762 C 317.946 328.563,317.587 328.400,317.024 328.400 C 316.461 328.400,316.000 328.469,316.000 328.553 " stroke="none" fill="#e7e6ed" fill-rule="evenodd"></path><path id="path1" d="M168.600 72.800 C 168.738 73.023,168.434 73.200,167.912 73.200 C 167.397 73.200,166.717 73.560,166.400 74.000 C 166.083 74.440,165.589 74.800,165.303 74.800 C 164.668 74.800,160.400 79.005,160.400 79.631 C 160.400 79.877,159.860 80.583,159.200 81.200 C 158.540 81.817,158.000 82.569,158.000 82.872 C 158.000 83.175,157.640 83.683,157.200 84.000 C 156.760 84.317,156.400 84.897,156.400 85.288 C 156.400 85.680,156.220 86.000,156.000 86.000 C 155.780 86.000,155.600 86.360,155.600 86.800 C 155.600 87.240,155.420 87.600,155.200 87.600 C 154.980 87.600,154.800 87.960,154.800 88.400 C 154.800 88.840,154.620 89.200,154.400 89.200 C 154.180 89.200,154.000 89.483,154.000 89.829 C 154.000 90.174,153.746 90.711,153.436 91.021 C 153.125 91.332,152.765 91.814,152.636 92.093 C 152.448 92.496,152.352 92.498,152.167 92.100 C 151.871 91.466,136.000 91.367,136.000 92.000 C 136.000 92.220,135.010 92.400,133.800 92.400 C 132.590 92.400,131.600 92.580,131.600 92.800 C 131.600 93.020,130.970 93.200,130.200 93.200 C 129.430 93.200,128.800 93.380,128.800 93.600 C 128.800 93.820,128.170 94.000,127.400 94.000 C 126.630 94.000,126.000 94.180,126.000 94.400 C 126.000 94.620,125.640 94.800,125.200 94.800 C 124.760 94.800,124.400 94.980,124.400 95.200 C 124.400 95.420,124.040 95.600,123.600 95.600 C 123.160 95.600,122.800 95.780,122.800 96.000 C 122.800 96.220,122.440 96.400,122.000 96.400 C 121.560 96.400,121.200 96.580,121.200 96.800 C 121.200 97.020,120.880 97.200,120.488 97.200 C 120.097 97.200,119.517 97.560,119.200 98.000 C 118.883 98.440,118.379 98.800,118.080 98.800 C 117.782 98.800,116.846 99.520,116.000 100.400 C 115.154 101.280,114.264 102.000,114.021 102.000 C 113.447 102.000,110.000 105.445,110.000 106.018 C 110.000 106.733,108.920 107.600,108.029 107.600 C 107.573 107.600,107.200 107.420,107.200 107.200 C 107.200 106.980,106.786 106.800,106.280 106.800 C 105.774 106.800,105.118 106.575,104.821 106.300 C 104.390 105.900,104.339 105.900,104.565 106.300 C 104.758 106.641,104.533 106.800,103.857 106.800 C 103.312 106.800,102.806 106.619,102.733 106.399 C 102.546 105.838,89.060 105.819,88.874 106.379 C 88.796 106.611,87.938 106.800,86.967 106.800 C 85.995 106.800,85.200 106.980,85.200 107.200 C 85.200 107.420,84.744 107.600,84.187 107.600 C 83.589 107.600,83.069 107.886,82.915 108.300 C 82.772 108.685,82.328 109.291,81.928 109.647 C 81.527 110.003,81.200 110.588,81.200 110.947 C 81.200 111.306,81.020 111.600,80.800 111.600 C 80.580 111.600,80.400 112.039,80.400 112.576 C 80.400 113.113,80.220 113.664,80.000 113.800 C 79.780 113.936,79.600 114.577,79.600 115.224 C 79.600 115.871,79.420 116.400,79.200 116.400 C 78.980 116.400,78.800 117.300,78.800 118.400 C 78.800 119.500,78.620 120.400,78.400 120.400 C 77.855 120.400,77.855 138.263,78.400 138.600 C 78.620 138.736,78.800 139.377,78.800 140.024 C 78.800 140.671,78.980 141.200,79.200 141.200 C 79.420 141.200,79.600 141.476,79.600 141.813 C 79.600 142.508,82.146 145.200,82.803 145.200 C 83.040 145.200,83.620 145.560,84.092 146.000 C 84.670 146.538,85.504 146.800,86.642 146.800 C 87.572 146.800,88.395 146.986,88.471 147.214 C 88.547 147.442,89.642 147.640,90.905 147.655 C 92.167 147.670,93.200 147.844,93.200 148.041 C 93.200 148.239,94.100 148.400,95.200 148.400 C 96.933 148.400,97.200 148.507,97.200 149.200 C 97.200 149.640,97.020 150.000,96.800 150.000 C 96.556 150.000,96.400 151.859,96.400 154.776 C 96.400 157.529,96.231 159.658,96.000 159.800 C 95.771 159.942,95.600 162.004,95.600 164.624 C 95.600 167.408,95.443 169.200,95.200 169.200 C 94.959 169.200,94.800 170.867,94.800 173.400 C 94.800 175.933,94.959 177.600,95.200 177.600 C 95.420 177.600,95.600 177.791,95.600 178.024 C 95.600 178.257,95.375 178.320,95.100 178.165 C 94.700 177.939,94.700 177.990,95.100 178.421 C 95.375 178.718,95.600 179.284,95.600 179.680 C 95.600 180.076,95.780 180.400,96.000 180.400 C 96.220 180.400,96.400 180.760,96.400 181.200 C 96.400 181.640,96.580 182.000,96.800 182.000 C 97.020 182.000,97.200 182.360,97.200 182.800 C 97.200 183.240,97.380 183.600,97.600 183.600 C 97.820 183.600,98.000 183.960,98.000 184.400 C 98.000 184.840,98.180 185.200,98.400 185.200 C 98.620 185.200,98.800 185.488,98.800 185.840 C 98.800 186.191,99.340 186.983,100.000 187.600 C 100.660 188.217,101.200 189.009,101.200 189.360 C 101.200 189.712,101.380 190.000,101.600 190.000 C 101.820 190.000,102.000 190.180,102.000 190.400 C 102.000 190.620,101.550 190.800,101.000 190.800 C 100.450 190.800,100.000 190.980,100.000 191.200 C 100.000 191.420,99.550 191.600,99.000 191.600 C 98.124 191.600,98.000 191.773,98.000 193.000 C 98.000 193.770,97.820 194.400,97.600 194.400 C 97.380 194.400,97.200 194.951,97.200 195.624 C 97.200 196.337,97.033 196.744,96.800 196.600 C 96.567 196.456,96.400 196.863,96.400 197.576 C 96.400 198.249,96.220 198.800,96.000 198.800 C 95.780 198.800,95.600 199.340,95.600 200.000 C 95.600 200.660,95.420 201.200,95.200 201.200 C 94.980 201.200,94.800 201.549,94.800 201.976 C 94.800 202.403,94.620 202.864,94.400 203.000 C 94.180 203.136,94.000 203.867,94.000 204.624 C 94.000 205.381,93.820 206.000,93.600 206.000 C 93.380 206.000,93.200 206.450,93.200 207.000 C 93.200 207.550,93.020 208.000,92.800 208.000 C 92.580 208.000,92.400 208.551,92.400 209.224 C 92.400 209.937,92.233 210.344,92.000 210.200 C 91.767 210.056,91.600 210.463,91.600 211.176 C 91.600 211.849,91.420 212.400,91.200 212.400 C 90.980 212.400,90.800 212.940,90.800 213.600 C 90.800 214.260,90.620 214.800,90.400 214.800 C 90.180 214.800,90.000 215.340,90.000 216.000 C 90.000 216.660,89.820 217.200,89.600 217.200 C 89.380 217.200,89.200 217.740,89.200 218.400 C 89.200 219.060,89.020 219.600,88.800 219.600 C 88.580 219.600,88.400 219.949,88.400 220.376 C 88.400 220.803,88.220 221.264,88.000 221.400 C 87.780 221.536,87.600 222.087,87.600 222.624 C 87.600 223.161,87.420 223.600,87.200 223.600 C 86.980 223.600,86.800 223.949,86.800 224.376 C 86.800 224.803,86.620 225.264,86.400 225.400 C 86.180 225.536,86.000 226.267,86.000 227.024 C 86.000 227.781,85.820 228.400,85.600 228.400 C 85.380 228.400,85.200 228.940,85.200 229.600 C 85.200 230.260,85.020 230.800,84.800 230.800 C 84.580 230.800,84.400 231.340,84.400 232.000 C 84.400 232.660,84.220 233.200,84.000 233.200 C 83.780 233.200,83.600 233.740,83.600 234.400 C 83.600 235.060,83.420 235.600,83.200 235.600 C 82.980 235.600,82.800 236.140,82.800 236.800 C 82.800 237.460,82.620 238.000,82.400 238.000 C 82.180 238.000,82.000 238.540,82.000 239.200 C 82.000 239.860,81.820 240.400,81.600 240.400 C 81.380 240.400,81.200 240.760,81.200 241.200 C 81.200 241.640,81.020 242.000,80.800 242.000 C 80.580 242.000,80.400 242.630,80.400 243.400 C 80.400 244.170,80.220 244.800,80.000 244.800 C 79.780 244.800,79.600 245.250,79.600 245.800 C 79.600 246.350,79.420 246.800,79.200 246.800 C 78.980 246.800,78.800 247.340,78.800 248.000 C 78.800 248.660,78.620 249.200,78.400 249.200 C 78.180 249.200,78.000 249.740,78.000 250.400 C 78.000 251.060,77.820 251.600,77.600 251.600 C 77.365 251.600,77.200 253.004,77.200 255.011 L 77.200 258.421 78.989 260.211 L 80.779 262.000 89.389 262.000 L 98.000 262.000 98.000 293.200 L 98.000 324.400 92.600 324.400 C 89.267 324.400,87.200 324.553,87.200 324.800 C 87.200 325.020,86.469 325.200,85.576 325.200 C 84.394 325.200,84.029 325.064,84.235 324.700 C 84.461 324.300,84.410 324.300,83.979 324.700 C 83.682 324.975,82.475 325.200,81.296 325.200 C 79.969 325.200,79.247 325.352,79.400 325.600 C 79.536 325.820,79.277 326.000,78.824 326.000 C 77.904 326.000,77.626 327.722,78.462 328.238 C 78.748 328.415,78.815 328.348,78.638 328.062 C 78.459 327.772,78.650 327.600,79.153 327.600 C 79.593 327.600,80.064 327.780,80.200 328.000 C 80.342 328.229,82.412 328.400,85.047 328.400 C 88.012 328.400,89.559 328.542,89.400 328.800 C 89.235 329.066,126.804 329.200,201.800 329.200 C 276.796 329.200,314.365 329.066,314.200 328.800 C 314.043 328.546,315.129 328.400,317.176 328.400 C 319.059 328.400,320.400 328.234,320.400 328.000 C 320.400 327.780,320.760 327.600,321.200 327.600 C 321.733 327.600,322.000 327.333,322.000 326.800 C 322.000 326.356,321.733 326.000,321.400 326.000 C 321.070 326.000,320.800 325.820,320.800 325.600 C 320.800 325.374,319.667 325.200,318.200 325.200 C 316.733 325.200,315.600 325.026,315.600 324.800 C 315.600 324.548,312.933 324.400,308.400 324.400 L 301.200 324.400 301.200 293.200 L 301.200 262.000 309.200 262.000 C 314.267 262.000,317.200 261.853,317.200 261.600 C 317.200 261.380,317.478 261.200,317.818 261.200 C 318.618 261.200,320.400 259.418,320.400 258.618 C 320.400 258.278,320.580 258.000,320.800 258.000 C 321.020 258.000,321.200 256.999,321.200 255.776 C 321.200 254.396,321.352 253.647,321.600 253.800 C 321.820 253.936,322.000 253.857,322.000 253.624 C 322.000 253.391,321.820 253.200,321.600 253.200 C 321.380 253.200,321.200 252.480,321.200 251.600 C 321.200 250.720,321.020 250.000,320.800 250.000 C 320.580 250.000,320.400 249.638,320.400 249.195 C 320.400 248.752,320.220 248.032,320.000 247.595 C 319.780 247.158,319.420 246.442,319.200 246.005 C 318.980 245.568,318.800 244.848,318.800 244.405 C 318.800 243.962,318.620 243.600,318.400 243.600 C 318.180 243.600,318.000 243.060,318.000 242.400 C 318.000 241.740,317.820 241.200,317.600 241.200 C 317.380 241.200,317.200 240.660,317.200 240.000 C 317.200 239.340,317.020 238.800,316.800 238.800 C 316.580 238.800,316.400 238.260,316.400 237.600 C 316.400 236.940,316.220 236.400,316.000 236.400 C 315.780 236.400,315.600 235.860,315.600 235.200 C 315.600 234.540,315.420 234.000,315.200 234.000 C 314.980 234.000,314.800 233.460,314.800 232.800 C 314.800 232.140,314.620 231.600,314.400 231.600 C 314.180 231.600,314.000 231.060,314.000 230.400 C 314.000 229.740,313.820 229.200,313.600 229.200 C 313.380 229.200,313.200 228.840,313.200 228.400 C 313.200 227.960,313.020 227.600,312.800 227.600 C 312.580 227.600,312.400 226.880,312.400 226.000 C 312.400 225.120,312.220 224.400,312.000 224.400 C 311.780 224.400,311.600 223.860,311.600 223.200 C 311.600 222.540,311.420 222.000,311.200 222.000 C 310.980 222.000,310.800 221.640,310.800 221.200 C 310.800 220.760,310.620 220.400,310.400 220.400 C 310.180 220.400,310.000 219.680,310.000 218.800 C 310.000 217.920,309.820 217.200,309.600 217.200 C 309.380 217.200,309.200 216.840,309.200 216.400 C 309.200 215.960,309.020 215.600,308.800 215.600 C 308.580 215.600,308.400 215.060,308.400 214.400 C 308.400 213.740,308.220 213.200,308.000 213.200 C 307.780 213.200,307.600 212.660,307.600 212.000 C 307.600 211.340,307.420 210.800,307.200 210.800 C 306.980 210.800,306.800 210.260,306.800 209.600 C 306.800 208.940,306.620 208.400,306.400 208.400 C 306.180 208.400,306.000 207.860,306.000 207.200 C 306.000 206.540,305.820 206.000,305.600 206.000 C 305.380 206.000,305.200 205.460,305.200 204.800 C 305.200 204.140,305.020 203.600,304.800 203.600 C 304.580 203.600,304.400 203.060,304.400 202.400 C 304.400 201.740,304.220 201.200,304.000 201.200 C 303.780 201.200,303.600 200.660,303.600 200.000 C 303.600 199.340,303.420 198.800,303.200 198.800 C 302.980 198.800,302.800 198.260,302.800 197.600 C 302.800 196.940,302.620 196.400,302.400 196.400 C 302.180 196.400,302.000 195.860,302.000 195.200 C 302.000 194.540,301.820 194.000,301.600 194.000 C 301.380 194.000,301.200 193.460,301.200 192.800 C 301.200 191.787,301.044 191.600,300.200 191.600 C 299.650 191.600,299.200 191.420,299.200 191.200 C 299.200 190.946,296.200 190.800,291.000 190.800 L 282.800 190.800 282.800 188.800 C 282.800 187.700,282.620 186.800,282.400 186.800 C 282.180 186.800,282.000 186.332,282.000 185.760 C 282.000 185.121,281.538 184.289,280.800 183.600 C 280.140 182.983,279.600 182.371,279.600 182.240 C 279.600 182.108,280.140 182.000,280.800 182.000 C 281.460 182.000,282.000 181.820,282.000 181.600 C 282.000 181.380,282.720 181.200,283.600 181.200 C 284.480 181.200,285.200 181.020,285.200 180.800 C 285.200 180.580,285.560 180.400,286.000 180.400 C 286.440 180.400,286.800 180.220,286.800 180.000 C 286.800 179.780,287.160 179.600,287.600 179.600 C 288.040 179.600,288.400 179.420,288.400 179.200 C 288.400 178.980,288.688 178.800,289.040 178.800 C 289.391 178.800,290.183 178.260,290.800 177.600 C 291.417 176.940,292.209 176.400,292.560 176.400 C 292.912 176.400,293.200 176.112,293.200 175.760 C 293.200 175.409,293.740 174.617,294.400 174.000 C 295.060 173.383,295.600 172.591,295.600 172.240 C 295.600 171.888,295.780 171.600,296.000 171.600 C 296.220 171.600,296.400 171.240,296.400 170.800 C 296.400 170.360,296.580 170.000,296.800 170.000 C 297.020 170.000,297.200 169.539,297.200 168.976 C 297.200 168.396,297.373 168.060,297.600 168.200 C 297.838 168.347,298.000 167.871,298.000 167.024 C 298.000 166.241,298.180 165.600,298.400 165.600 C 298.620 165.600,298.800 165.186,298.800 164.680 C 298.800 164.174,299.025 163.518,299.300 163.221 C 299.700 162.790,299.700 162.739,299.300 162.965 C 298.957 163.159,298.800 162.926,298.800 162.224 C 298.800 161.661,298.980 161.200,299.200 161.200 C 299.447 161.200,299.600 159.096,299.600 155.688 C 299.600 150.635,299.667 150.129,300.400 149.600 C 300.840 149.283,301.200 148.743,301.200 148.400 C 301.200 148.057,301.560 147.517,302.000 147.200 C 302.440 146.883,302.800 146.343,302.800 146.000 C 302.800 145.657,303.160 145.117,303.600 144.800 C 304.040 144.483,304.400 143.903,304.400 143.512 C 304.400 143.120,304.580 142.800,304.800 142.800 C 305.020 142.800,305.200 142.440,305.200 142.000 C 305.200 141.560,305.380 141.200,305.600 141.200 C 305.820 141.200,306.000 140.840,306.000 140.400 C 306.000 139.960,306.180 139.600,306.400 139.600 C 306.620 139.600,306.800 139.240,306.800 138.800 C 306.800 138.360,306.980 138.000,307.200 138.000 C 307.420 138.000,307.600 137.640,307.600 137.200 C 307.600 136.760,307.780 136.400,308.000 136.400 C 308.220 136.400,308.400 136.040,308.400 135.600 C 308.400 135.160,308.580 134.800,308.800 134.800 C 309.020 134.800,309.200 134.440,309.200 134.000 C 309.200 133.560,309.380 133.200,309.600 133.200 C 309.820 133.200,310.000 132.559,310.000 131.776 C 310.000 130.929,310.162 130.453,310.400 130.600 C 310.633 130.744,310.800 130.337,310.800 129.624 C 310.800 128.951,310.980 128.400,311.200 128.400 C 311.420 128.400,311.600 127.770,311.600 127.000 C 311.600 126.230,311.780 125.600,312.000 125.600 C 312.220 125.600,312.400 124.610,312.400 123.400 C 312.400 122.190,312.220 121.200,312.000 121.200 C 311.780 121.200,311.600 120.840,311.600 120.400 C 311.600 119.960,311.420 119.600,311.200 119.600 C 310.980 119.600,310.800 119.317,310.800 118.971 C 310.800 118.245,309.863 117.200,309.212 117.200 C 308.967 117.200,308.380 116.840,307.908 116.400 C 307.436 115.960,306.858 115.603,306.625 115.606 C 306.391 115.609,306.470 115.787,306.800 116.000 C 307.313 116.331,307.298 116.389,306.700 116.394 C 306.315 116.397,306.000 116.220,306.000 116.000 C 306.000 115.780,305.100 115.600,304.000 115.600 C 302.900 115.600,302.000 115.420,302.000 115.200 C 302.000 114.946,298.859 114.800,293.376 114.800 C 288.633 114.800,284.844 114.653,284.955 114.473 C 285.066 114.293,284.807 113.893,284.379 113.585 C 283.950 113.276,283.600 112.703,283.600 112.312 C 283.600 111.920,283.420 111.600,283.200 111.600 C 282.980 111.600,282.800 111.280,282.800 110.888 C 282.800 110.497,282.440 109.917,282.000 109.600 C 281.560 109.283,281.200 108.775,281.200 108.472 C 281.200 108.169,280.705 107.438,280.100 106.848 C 279.495 106.258,278.808 105.433,278.573 105.015 C 278.339 104.596,277.806 104.061,277.390 103.827 C 276.974 103.592,275.965 102.725,275.148 101.900 C 274.331 101.075,273.418 100.400,273.120 100.400 C 272.821 100.400,272.317 100.040,272.000 99.600 C 271.683 99.160,271.103 98.800,270.712 98.800 C 270.320 98.800,270.000 98.620,270.000 98.400 C 270.000 98.180,269.640 98.000,269.200 98.000 C 268.760 98.000,268.400 97.820,268.400 97.600 C 268.400 97.380,268.040 97.200,267.600 97.200 C 267.160 97.200,266.800 97.020,266.800 96.800 C 266.800 96.580,266.350 96.400,265.800 96.400 C 265.250 96.400,264.800 96.220,264.800 96.000 C 264.800 95.780,264.350 95.600,263.800 95.600 C 263.250 95.600,262.800 95.420,262.800 95.200 C 262.800 94.980,262.170 94.800,261.400 94.800 C 260.630 94.800,260.000 94.620,260.000 94.400 C 260.000 94.180,259.586 94.000,259.080 94.000 C 258.574 94.000,257.918 93.775,257.621 93.500 C 257.190 93.100,257.139 93.100,257.365 93.500 C 257.551 93.830,257.366 94.000,256.824 94.000 C 256.371 94.000,256.000 93.820,256.000 93.600 C 256.000 93.380,255.046 93.200,253.880 93.200 C 252.714 93.200,251.518 92.975,251.221 92.700 C 250.790 92.300,250.739 92.300,250.965 92.700 C 251.151 93.030,250.964 93.200,250.414 93.200 C 249.807 93.200,249.515 92.873,249.340 92.000 C 249.208 91.340,248.943 90.800,248.750 90.800 C 248.558 90.800,248.400 90.260,248.400 89.600 C 248.400 88.940,248.220 88.400,248.000 88.400 C 247.780 88.400,247.600 87.860,247.600 87.200 C 247.600 86.540,247.420 86.000,247.200 86.000 C 246.980 86.000,246.800 85.766,246.800 85.480 C 246.800 84.744,245.859 82.807,245.500 82.803 C 245.335 82.801,245.200 82.480,245.200 82.088 C 245.200 81.697,244.840 81.117,244.400 80.800 C 243.960 80.483,243.600 79.903,243.600 79.512 C 243.600 79.120,243.420 78.800,243.200 78.800 C 242.980 78.800,242.800 78.524,242.800 78.187 C 242.800 77.851,242.485 77.457,242.100 77.312 C 241.715 77.167,240.923 76.543,240.340 75.925 C 239.559 75.097,238.899 74.800,237.840 74.800 C 237.048 74.800,236.400 74.620,236.400 74.400 C 236.400 74.180,235.950 74.000,235.400 74.000 C 234.850 74.000,234.400 74.180,234.400 74.400 C 234.400 74.620,233.770 74.800,233.000 74.800 C 232.230 74.800,231.600 74.980,231.600 75.200 C 231.600 75.420,231.316 75.600,230.969 75.600 C 230.621 75.600,229.646 76.320,228.800 77.200 C 227.954 78.080,227.064 78.800,226.821 78.800 C 226.249 78.800,222.800 82.244,222.800 82.815 C 222.800 83.056,221.900 84.129,220.800 85.200 C 219.700 86.271,218.800 87.390,218.800 87.686 C 218.800 87.981,218.440 88.483,218.000 88.800 C 217.560 89.117,217.200 89.657,217.200 90.000 C 217.200 90.343,216.840 90.883,216.400 91.200 C 215.960 91.517,215.600 92.097,215.600 92.488 C 215.600 92.880,215.420 93.200,215.200 93.200 C 214.980 93.200,214.800 93.560,214.800 94.000 C 214.800 94.440,214.620 94.800,214.400 94.800 C 214.180 94.800,214.000 95.160,214.000 95.600 C 214.000 96.040,213.820 96.400,213.600 96.400 C 213.380 96.400,213.200 96.760,213.200 97.200 C 213.200 97.640,213.020 98.000,212.800 98.000 C 212.580 98.000,212.400 98.360,212.400 98.800 C 212.400 99.240,212.220 99.600,212.000 99.600 C 211.780 99.600,211.600 99.960,211.600 100.400 C 211.600 100.840,211.420 101.200,211.200 101.200 C 210.980 101.200,210.800 101.740,210.800 102.400 C 210.800 103.060,210.620 103.600,210.400 103.600 C 210.180 103.600,210.000 104.140,210.000 104.800 C 210.000 105.460,209.820 106.000,209.600 106.000 C 209.380 106.000,209.200 106.450,209.200 107.000 C 209.200 107.550,209.020 108.000,208.800 108.000 C 208.580 108.000,208.400 108.450,208.400 109.000 C 208.400 109.692,208.181 110.000,207.688 110.000 C 207.297 110.000,206.717 110.360,206.400 110.800 C 206.083 111.240,205.579 111.600,205.280 111.600 C 204.982 111.600,204.046 112.320,203.200 113.200 C 202.354 114.080,201.463 114.800,201.218 114.800 C 200.641 114.800,198.000 117.439,198.000 118.015 C 198.000 120.071,196.785 119.597,193.411 116.223 C 189.619 112.431,189.365 111.714,191.200 110.000 C 191.860 109.383,192.400 108.631,192.400 108.328 C 192.400 108.025,192.760 107.517,193.200 107.200 C 193.640 106.883,194.000 106.303,194.000 105.912 C 194.000 105.520,194.180 105.200,194.400 105.200 C 194.620 105.200,194.800 104.840,194.800 104.400 C 194.800 103.960,194.980 103.600,195.200 103.600 C 195.420 103.600,195.600 103.280,195.600 102.888 C 195.600 102.497,195.960 101.917,196.400 101.600 C 196.870 101.261,197.200 100.565,197.200 99.912 C 197.200 99.300,197.380 98.800,197.600 98.800 C 197.820 98.800,198.000 98.080,198.000 97.200 C 198.000 96.320,198.180 95.600,198.400 95.600 C 198.620 95.600,198.800 94.970,198.800 94.200 C 198.800 93.430,198.620 92.800,198.400 92.800 C 198.180 92.800,198.000 92.030,198.000 91.088 C 198.000 89.835,197.786 89.222,197.200 88.800 C 196.760 88.483,196.400 87.989,196.400 87.703 C 196.400 87.072,192.198 82.800,191.577 82.800 C 191.335 82.800,190.446 82.080,189.600 81.200 C 188.754 80.320,187.818 79.600,187.520 79.600 C 187.221 79.600,186.717 79.240,186.400 78.800 C 186.083 78.360,185.503 78.000,185.112 78.000 C 184.720 78.000,184.400 77.820,184.400 77.600 C 184.400 77.380,184.080 77.200,183.688 77.200 C 183.297 77.200,182.717 76.840,182.400 76.400 C 182.083 75.960,181.503 75.600,181.112 75.600 C 180.720 75.600,180.400 75.420,180.400 75.200 C 180.400 74.980,179.860 74.800,179.200 74.800 C 178.540 74.800,178.000 74.620,178.000 74.400 C 178.000 74.180,177.640 74.000,177.200 74.000 C 176.760 74.000,176.400 73.820,176.400 73.600 C 176.400 73.380,175.770 73.200,175.000 73.200 C 174.230 73.200,173.600 73.020,173.600 72.800 C 173.600 72.574,172.459 72.400,170.976 72.400 C 169.329 72.400,168.445 72.549,168.600 72.800 M177.308 78.335 C 186.279 82.518,194.400 90.067,194.400 94.223 C 194.400 98.284,184.010 114.400,181.392 114.400 C 179.731 114.400,175.412 107.982,173.046 102.000 C 172.655 101.010,172.102 99.660,171.819 99.000 C 171.331 97.863,170.879 96.328,170.122 93.231 C 169.615 91.155,168.800 91.177,168.800 93.267 C 168.802 100.167,174.746 114.511,178.669 117.082 C 180.294 118.147,183.235 117.919,184.972 116.595 L 186.412 115.496 188.511 117.448 C 189.665 118.522,191.463 120.149,192.505 121.063 C 194.701 122.991,194.734 123.172,193.393 125.863 C 189.104 134.470,191.057 145.323,198.648 155.069 C 201.449 158.664,201.448 158.663,203.946 161.288 L 205.691 163.123 204.501 164.862 C 203.453 166.392,200.662 171.970,199.529 174.800 C 198.561 177.216,197.744 178.563,197.002 178.966 C 196.563 179.205,195.708 179.727,195.102 180.127 C 194.034 180.832,193.966 180.831,192.900 180.094 C 182.481 172.886,164.153 178.155,162.942 188.708 C 162.599 191.695,162.906 191.587,154.724 191.594 C 146.963 191.601,147.166 191.667,146.934 189.040 C 146.255 181.351,136.028 175.577,125.931 177.183 C 117.171 178.577,111.720 182.834,110.993 188.850 L 110.720 191.100 109.500 190.650 C 105.588 189.207,99.503 180.566,98.938 175.652 C 98.723 173.774,99.274 165.170,100.030 158.600 C 100.259 156.620,100.570 153.470,100.723 151.600 L 101.000 148.200 104.800 147.994 C 110.083 147.707,112.400 146.079,112.400 142.654 C 112.400 139.616,107.187 128.726,104.138 125.394 C 103.732 124.950,102.531 123.555,101.469 122.294 C 100.352 120.967,99.214 120.000,98.769 120.000 C 97.706 120.000,97.745 120.096,99.985 123.018 C 104.947 129.492,110.281 141.181,109.197 143.206 C 108.257 144.962,104.714 145.226,96.000 144.190 C 82.802 142.621,81.600 141.403,81.600 129.600 C 81.600 126.495,81.785 123.110,82.011 122.077 C 82.238 121.045,82.614 119.300,82.849 118.200 C 84.184 111.930,84.929 111.064,89.794 110.136 C 94.468 109.245,100.013 109.571,107.600 111.183 C 110.243 111.744,110.239 111.745,111.872 109.900 C 121.364 99.174,132.439 94.473,146.060 95.388 C 148.557 95.556,151.674 95.717,152.986 95.746 L 155.371 95.800 157.203 92.200 C 160.638 85.447,165.969 78.533,168.894 77.038 C 170.775 76.076,173.298 76.465,177.308 78.335 M237.622 78.812 C 238.464 79.262,241.869 84.169,242.888 86.400 C 244.222 89.322,245.600 92.962,245.601 93.569 C 245.606 95.619,247.098 96.800,249.694 96.807 C 252.821 96.817,258.047 97.736,262.364 99.036 C 269.237 101.107,277.157 108.100,280.982 115.475 C 282.517 118.435,282.120 118.325,292.007 118.522 C 309.185 118.863,310.310 119.750,306.565 130.000 C 304.576 135.443,300.014 143.524,296.596 147.660 C 295.798 148.625,295.697 149.318,295.469 155.460 C 295.202 162.626,294.753 164.970,292.927 168.730 C 289.287 176.227,279.882 179.957,270.551 177.606 C 258.978 174.690,247.624 180.328,246.534 189.531 L 246.287 191.613 235.644 191.506 L 225.000 191.400 224.800 189.000 C 224.195 181.738,214.672 175.901,205.220 176.998 C 202.248 177.343,202.209 177.178,204.221 172.854 C 207.388 166.052,208.651 164.688,210.200 166.400 C 211.422 167.750,213.600 167.228,213.600 165.585 C 213.600 165.224,211.790 163.341,209.577 161.400 C 207.364 159.458,205.320 157.535,205.033 157.126 C 204.747 156.717,203.893 155.712,203.135 154.891 C 190.096 140.780,192.140 125.382,208.566 113.991 C 211.500 111.957,211.775 111.643,212.420 109.600 C 217.844 92.402,231.605 75.591,237.622 78.812 M228.556 86.700 C 227.709 87.745,226.790 88.835,226.514 89.123 C 224.387 91.336,220.265 101.117,219.926 104.756 C 219.695 107.239,220.660 107.226,224.655 104.691 C 233.007 99.393,232.600 100.012,232.600 92.618 C 232.600 84.053,231.732 82.782,228.556 86.700 M230.400 92.964 C 230.400 97.810,230.074 98.448,226.505 100.593 C 224.840 101.594,223.387 102.320,223.275 102.208 C 222.256 101.190,228.859 88.695,230.032 89.420 C 230.234 89.545,230.400 91.140,230.400 92.964 M225.700 114.996 C 224.372 115.574,224.004 116.302,224.900 116.581 C 225.175 116.666,226.650 117.124,228.179 117.599 C 231.875 118.746,234.361 120.961,236.682 125.173 C 238.144 127.827,239.182 125.981,237.949 122.919 C 235.181 116.044,230.402 112.953,225.700 114.996 M159.521 121.616 C 157.111 122.889,156.000 124.687,156.000 127.314 C 156.000 130.392,156.685 130.686,158.068 128.200 C 159.729 125.214,161.177 124.596,166.233 124.712 C 170.833 124.818,171.383 124.640,170.181 123.438 C 167.870 121.127,162.263 120.169,159.521 121.616 M299.949 125.575 C 294.278 126.681,289.459 131.419,290.222 135.139 C 291.464 141.195,292.551 143.200,294.592 143.200 C 295.760 143.200,297.600 141.882,297.600 141.046 C 297.600 140.880,298.107 139.992,298.728 139.072 C 302.759 133.094,304.533 124.753,301.667 125.246 C 301.520 125.271,300.747 125.419,299.949 125.575 M300.563 128.340 C 301.102 129.213,296.533 139.128,295.008 140.393 C 294.358 140.933,294.160 140.595,293.151 137.219 C 291.863 132.912,292.508 131.662,297.336 129.109 C 299.519 127.954,300.221 127.787,300.563 128.340 M242.000 133.200 C 240.774 134.426,241.447 139.200,242.846 139.200 C 243.560 139.200,243.172 140.713,242.186 141.777 C 239.720 144.438,231.560 140.664,233.191 137.616 C 233.737 136.597,233.578 136.280,232.694 136.619 C 231.384 137.122,231.067 138.964,231.970 140.831 C 232.426 141.777,232.800 143.304,232.800 144.226 C 232.800 151.003,242.899 156.294,247.555 151.956 C 248.001 151.540,248.923 151.200,249.603 151.200 C 252.019 151.200,253.600 149.883,253.600 147.871 C 253.600 147.048,253.553 147.059,252.584 148.104 C 250.938 149.879,248.492 149.292,245.635 146.435 C 243.136 143.936,243.742 140.490,246.587 141.024 C 248.233 141.333,250.528 140.387,251.415 139.033 C 252.412 137.511,251.591 136.574,247.272 134.300 C 243.156 132.133,243.082 132.118,242.000 133.200 M125.611 134.470 C 122.977 136.012,120.800 139.787,120.800 142.811 C 120.800 144.784,121.250 144.814,122.683 142.936 C 126.572 137.842,128.109 136.928,132.047 137.373 C 135.406 137.754,135.231 136.070,131.705 134.100 C 130.351 133.343,127.211 133.533,125.611 134.470 M264.400 136.757 C 259.139 137.937,258.832 139.200,263.806 139.200 C 268.767 139.200,270.328 139.724,273.646 142.500 C 276.780 145.123,276.800 145.132,276.800 143.849 C 276.800 139.052,270.425 135.406,264.400 136.757 M167.680 142.080 C 167.416 142.344,167.200 142.766,167.200 143.019 C 167.200 144.745,164.823 147.420,162.765 148.010 C 159.841 148.849,153.789 147.320,155.600 146.200 C 156.396 145.708,156.064 142.862,155.154 142.376 C 153.237 141.349,147.650 143.551,147.004 145.587 C 146.640 146.735,147.727 148.320,149.105 148.649 C 151.047 149.113,151.260 149.515,150.428 151.144 C 148.424 155.073,145.362 156.035,139.500 154.580 C 138.082 154.228,137.982 155.234,139.347 156.129 C 141.494 157.535,144.390 158.154,146.889 157.741 C 149.640 157.286,149.530 157.169,151.201 162.319 C 153.562 169.597,160.485 172.004,165.046 167.131 C 168.247 163.713,168.039 160.122,164.315 154.518 C 162.001 151.036,162.009 151.388,164.221 150.348 C 166.929 149.075,168.800 146.020,168.800 142.872 C 168.800 141.526,168.468 141.292,167.680 142.080 M239.874 147.225 C 242.720 148.301,244.280 151.200,242.012 151.200 C 240.065 151.200,236.000 148.583,236.000 147.330 C 236.000 146.680,238.267 146.618,239.874 147.225 M157.864 151.043 C 160.011 151.619,164.693 160.111,164.229 162.587 C 163.298 167.549,155.392 167.671,154.301 162.741 C 154.186 162.224,153.621 160.541,153.046 159.002 C 151.830 155.749,151.774 154.976,152.629 153.261 C 153.533 151.451,154.003 151.681,155.800 154.810 C 156.680 156.342,157.625 157.597,157.900 157.598 C 158.497 157.600,158.519 157.414,158.033 156.495 C 155.512 151.728,155.471 150.401,157.864 151.043 M209.600 180.416 C 221.553 182.303,226.374 192.540,216.200 194.433 C 214.243 194.797,213.600 194.344,213.600 192.601 C 213.600 186.985,212.004 188.007,211.105 194.200 C 210.998 194.936,210.684 195.000,207.201 195.000 L 203.414 195.000 203.104 193.400 C 202.934 192.520,202.682 191.125,202.545 190.300 C 202.091 187.580,200.818 188.770,200.805 191.926 C 200.796 194.149,200.230 194.785,198.499 194.518 C 188.517 192.979,192.276 182.616,203.559 180.569 C 207.032 179.939,206.636 179.949,209.600 180.416 M267.859 180.554 C 279.327 182.608,282.990 192.817,272.885 194.559 C 271.414 194.813,271.501 194.948,270.783 191.300 C 270.059 187.625,268.800 188.373,268.800 192.476 C 268.800 194.914,268.339 195.200,264.410 195.200 C 260.327 195.200,260.421 195.276,260.065 191.687 C 259.764 188.644,258.432 187.374,258.369 190.071 C 258.268 194.461,256.535 195.549,252.845 193.537 C 246.448 190.049,251.296 182.345,260.998 180.581 C 264.524 179.941,264.436 179.941,267.859 180.554 M135.980 181.571 C 145.224 185.042,145.620 193.818,136.562 194.461 L 134.610 194.600 134.348 192.600 C 133.709 187.731,132.558 187.299,132.010 191.722 C 131.574 195.234,131.612 195.201,128.076 195.194 C 123.962 195.186,123.242 194.439,123.210 190.143 C 123.204 189.441,122.952 188.791,122.639 188.670 C 121.900 188.387,121.600 188.730,121.600 189.861 C 121.600 191.685,120.651 194.400,120.017 194.391 C 117.754 194.359,114.400 191.582,114.400 189.742 C 114.400 182.904,126.913 178.166,135.980 181.571 M188.000 181.641 C 191.313 182.980,191.529 183.277,190.509 185.092 C 189.335 187.183,188.919 191.155,189.710 192.739 C 190.415 194.153,190.271 194.400,188.741 194.400 C 187.528 194.400,187.424 194.181,187.056 190.852 C 186.647 187.147,185.444 188.217,184.872 192.795 L 184.597 195.000 180.830 195.000 L 177.063 195.000 176.424 191.800 C 175.568 187.513,174.672 187.634,174.190 192.100 C 173.908 194.722,172.948 195.090,169.810 193.778 C 162.632 190.779,166.855 183.056,177.000 180.629 C 179.034 180.142,185.842 180.769,188.000 181.641 M114.338 195.935 C 119.461 199.481,138.539 199.481,143.662 195.935 C 144.898 195.079,165.295 194.783,165.808 195.613 C 166.127 196.130,168.874 197.355,171.046 197.949 C 171.952 198.197,175.222 198.400,178.314 198.400 C 181.405 198.400,184.219 198.509,184.567 198.643 C 185.261 198.909,185.514 274.912,184.935 309.134 L 184.670 324.800 143.598 324.800 L 102.526 324.800 102.263 317.536 C 102.118 313.541,102.000 284.381,102.000 252.736 L 102.000 195.200 107.638 195.200 C 112.458 195.200,113.431 195.307,114.338 195.935 M249.938 195.953 C 254.581 199.244,272.457 199.477,278.262 196.321 L 280.324 195.200 289.103 195.200 L 297.882 195.200 301.533 206.100 C 303.541 212.095,307.909 225.010,311.239 234.800 C 317.753 253.948,318.199 255.734,316.791 257.009 C 315.758 257.943,216.256 258.516,213.111 257.605 C 210.282 256.787,210.557 257.446,199.951 226.000 C 197.762 219.510,195.804 213.840,195.599 213.400 C 194.876 211.843,190.800 199.182,190.800 198.494 C 190.800 197.627,193.690 196.619,194.714 197.128 C 199.495 199.501,217.908 198.706,221.600 195.967 C 223.150 194.818,248.319 194.805,249.938 195.953 M98.400 232.000 L 98.400 258.000 90.654 258.000 C 79.634 258.000,79.699 258.066,82.623 249.772 C 83.626 246.927,84.967 243.070,85.603 241.200 C 86.239 239.330,87.678 235.190,88.802 232.000 C 89.926 228.810,91.181 225.210,91.591 224.000 C 92.001 222.790,93.265 219.190,94.399 216.000 C 95.533 212.810,96.758 209.255,97.122 208.100 C 97.487 206.945,97.923 206.000,98.092 206.000 C 98.262 206.000,98.400 217.700,98.400 232.000 M189.828 207.700 C 190.062 208.415,193.067 217.370,196.508 227.600 C 207.600 260.581,206.779 258.613,210.314 260.691 L 212.200 261.800 254.600 261.886 L 297.000 261.971 297.102 293.387 L 297.205 324.803 243.102 324.701 L 189.000 324.600 188.899 265.500 C 188.843 232.995,188.934 206.400,189.101 206.400 C 189.268 206.400,189.595 206.985,189.828 207.700 " stroke="none" fill="#0d0b74" fill-rule="evenodd"></path><path id="path2" d="M233.000 74.400 C 232.864 74.620,233.134 74.800,233.600 74.800 C 234.066 74.800,234.336 74.620,234.200 74.400 C 234.064 74.180,233.794 74.000,233.600 74.000 C 233.406 74.000,233.136 74.180,233.000 74.400 M170.705 76.683 C 171.202 76.779,171.922 76.775,172.305 76.675 C 172.687 76.575,172.280 76.496,171.400 76.501 C 170.520 76.505,170.207 76.587,170.705 76.683 M166.034 79.500 C 163.620 81.929,160.446 86.000,160.966 86.000 C 161.079 86.000,161.583 85.395,162.086 84.656 C 163.242 82.956,166.155 79.790,168.118 78.100 C 168.948 77.385,169.423 76.800,169.173 76.800 C 168.922 76.800,167.510 78.015,166.034 79.500 M174.400 77.530 L 175.800 78.194 173.836 78.322 C 169.548 78.600,163.712 84.737,158.737 94.200 L 156.845 97.800 153.923 97.600 C 136.147 96.384,126.116 99.509,116.306 109.320 C 113.930 111.695,111.839 113.548,111.659 113.437 C 109.347 112.008,94.285 111.243,90.400 112.357 C 85.385 113.796,83.491 118.210,82.228 131.400 C 82.144 132.280,82.118 130.390,82.171 127.200 C 82.224 124.010,82.136 121.850,81.974 122.400 C 80.695 126.750,81.821 138.272,83.723 140.291 C 87.342 144.132,109.200 146.144,109.200 142.636 C 109.200 139.360,103.671 128.272,98.550 121.281 C 97.480 119.820,98.478 119.165,99.853 120.425 C 106.111 126.161,113.397 139.293,112.620 143.436 C 112.035 146.553,109.750 147.964,104.765 148.287 C 101.865 148.475,101.198 148.638,101.188 149.159 C 101.161 150.576,100.007 161.572,99.624 164.062 C 99.398 165.526,99.166 168.946,99.107 171.662 L 99.000 176.600 100.874 180.400 C 102.945 184.599,105.640 187.935,108.345 189.651 C 110.454 190.988,110.800 190.863,110.800 188.763 C 110.800 186.779,112.347 183.652,114.029 182.237 C 115.216 181.238,115.255 181.124,114.643 180.447 C 113.641 179.341,112.800 175.506,112.800 172.047 C 112.800 164.022,117.521 156.725,125.200 152.880 C 134.596 148.176,137.772 144.053,137.588 136.800 C 137.355 127.599,137.410 127.163,139.035 125.231 C 141.333 122.501,145.209 123.943,148.927 128.912 C 152.920 134.247,159.405 136.002,167.000 133.805 C 176.112 131.168,182.663 131.765,188.990 135.810 L 191.000 137.095 191.110 134.263 C 191.234 131.040,191.903 128.496,193.463 125.306 L 194.545 123.095 192.704 121.447 C 185.864 115.329,186.378 115.611,184.677 117.042 C 180.733 120.360,176.538 117.072,172.030 107.130 C 169.081 100.627,167.330 88.530,169.808 91.776 C 170.133 92.204,170.400 92.939,170.400 93.410 C 170.400 95.886,174.747 105.741,178.203 111.100 C 180.694 114.963,181.518 115.025,184.395 111.568 C 191.479 103.056,195.016 95.206,193.454 91.467 C 191.828 87.575,176.926 76.626,173.535 76.833 C 173.241 76.851,173.630 77.164,174.400 77.530 M232.554 79.282 C 229.909 81.304,226.400 84.528,226.400 84.937 C 226.400 85.179,227.525 84.274,228.900 82.925 C 230.275 81.577,232.100 80.007,232.956 79.437 C 233.812 78.866,234.331 78.400,234.110 78.400 C 233.889 78.400,233.189 78.797,232.554 79.282 M237.290 79.024 C 238.638 79.755,239.737 81.501,238.547 81.020 C 235.943 79.968,235.488 79.907,233.864 80.394 C 232.557 80.785,229.449 82.905,228.000 84.395 C 227.096 85.323,225.912 86.106,226.175 85.600 C 227.069 83.887,223.015 88.695,220.947 91.800 C 218.898 94.877,215.200 101.805,215.200 102.565 C 215.200 102.699,214.852 103.572,214.427 104.504 C 214.003 105.437,213.384 107.010,213.054 108.000 C 211.721 111.991,211.474 112.468,210.552 112.818 L 209.602 113.179 210.439 114.690 C 214.262 121.590,226.418 127.108,234.972 125.825 L 236.797 125.551 235.220 123.229 C 232.701 119.520,231.280 118.527,226.800 117.341 C 223.701 116.521,223.447 116.045,225.495 114.900 C 230.255 112.239,238.361 118.563,238.394 124.962 C 238.400 126.062,238.439 126.089,239.131 125.462 C 239.534 125.098,240.050 124.800,240.278 124.800 C 242.374 124.800,249.503 120.429,252.447 117.339 C 258.054 111.452,262.320 100.852,259.352 100.180 C 258.718 100.037,257.570 99.774,256.800 99.597 C 256.030 99.419,253.870 99.151,252.000 99.001 C 248.716 98.739,247.600 98.356,247.600 97.492 C 247.600 97.225,248.960 97.158,251.500 97.301 C 253.664 97.423,254.866 97.381,254.200 97.208 C 253.540 97.035,251.602 96.873,249.894 96.847 L 246.787 96.800 246.242 95.500 C 245.941 94.785,245.482 93.480,245.222 92.600 C 244.713 90.884,244.537 90.431,243.240 87.504 C 242.778 86.462,242.400 85.509,242.400 85.386 C 242.400 84.117,237.554 78.366,236.526 78.416 C 236.347 78.425,236.690 78.698,237.290 79.024 M220.887 84.409 C 220.419 85.159,220.441 85.181,221.191 84.713 C 221.636 84.435,222.000 84.071,222.000 83.904 C 222.000 83.326,221.391 83.603,220.887 84.409 M232.284 85.604 C 232.970 86.960,232.986 97.553,232.304 99.050 C 231.778 100.206,221.447 107.349,220.675 107.092 C 217.626 106.075,223.106 92.151,228.941 86.089 C 230.752 84.208,231.522 84.096,232.284 85.604 M159.453 87.991 C 158.453 89.502,158.015 90.596,158.736 89.780 C 159.292 89.152,160.879 86.400,160.686 86.400 C 160.587 86.400,160.032 87.116,159.453 87.991 M256.200 93.600 C 256.064 93.820,256.334 94.000,256.800 94.000 C 257.266 94.000,257.536 93.820,257.400 93.600 C 257.264 93.380,256.994 93.200,256.800 93.200 C 256.606 93.200,256.336 93.380,256.200 93.600 M155.933 94.670 C 155.494 95.589,155.059 95.845,153.597 96.040 L 151.800 96.280 153.400 96.334 C 154.280 96.363,155.198 96.256,155.440 96.094 C 156.022 95.705,156.918 93.985,156.669 93.735 C 156.561 93.628,156.230 94.048,155.933 94.670 M138.000 95.553 C 137.230 95.689,139.840 95.803,143.800 95.807 C 147.857 95.812,150.301 95.691,149.400 95.530 C 147.484 95.190,139.970 95.205,138.000 95.553 M198.292 95.842 C 198.131 96.002,198.000 96.409,198.000 96.747 C 198.000 97.197,198.118 97.242,198.445 96.915 C 198.690 96.670,198.821 96.263,198.737 96.010 C 198.652 95.757,198.452 95.681,198.292 95.842 M133.400 96.419 C 132.842 96.671,133.085 96.707,134.200 96.538 C 135.080 96.404,135.875 96.228,135.967 96.147 C 136.310 95.844,134.168 96.071,133.400 96.419 M125.800 98.967 C 124.260 99.703,122.640 100.612,122.200 100.987 C 121.724 101.392,122.018 101.311,122.924 100.787 C 123.762 100.302,125.652 99.391,127.124 98.763 C 128.596 98.135,129.530 97.623,129.200 97.625 C 128.870 97.627,127.340 98.231,125.800 98.967 M256.800 98.000 C 257.350 98.176,258.160 98.326,258.600 98.332 L 259.400 98.344 258.600 98.000 C 258.160 97.811,257.350 97.662,256.800 97.668 L 255.800 97.680 256.800 98.000 M117.833 104.025 C 116.175 105.358,114.440 106.933,113.977 107.525 C 111.181 111.094,110.401 111.668,108.658 111.429 C 107.470 111.267,107.227 111.308,107.800 111.573 C 109.639 112.425,110.293 112.053,114.673 107.662 C 117.053 105.276,119.540 102.942,120.200 102.475 C 120.860 102.008,121.276 101.620,121.124 101.613 C 120.972 101.606,119.491 102.691,117.833 104.025 M90.600 109.952 C 89.940 110.094,92.277 110.210,95.794 110.211 C 99.525 110.211,101.525 110.094,100.594 109.929 C 98.648 109.584,92.247 109.599,90.600 109.952 M86.357 110.999 C 85.235 111.609,83.990 113.251,84.016 114.086 C 84.025 114.369,84.323 114.060,84.680 113.400 C 85.465 111.945,86.219 111.326,87.800 110.841 C 88.609 110.592,88.739 110.466,88.200 110.452 C 87.760 110.441,86.931 110.687,86.357 110.999 M103.800 110.800 C 104.460 110.968,105.360 111.114,105.800 111.125 L 106.600 111.144 105.800 110.800 C 105.360 110.611,104.460 110.465,103.800 110.475 L 102.600 110.495 103.800 110.800 M201.802 113.998 C 201.403 114.439,201.207 114.800,201.367 114.800 C 201.788 114.800,202.928 113.595,202.712 113.379 C 202.611 113.278,202.202 113.556,201.802 113.998 M285.200 114.428 C 285.200 114.632,286.100 114.800,287.200 114.800 C 288.300 114.800,289.200 114.654,289.200 114.476 C 289.200 114.299,288.300 114.131,287.200 114.104 C 286.100 114.077,285.200 114.223,285.200 114.428 M292.600 114.400 C 292.449 114.644,293.063 114.800,294.176 114.800 C 295.179 114.800,296.000 114.620,296.000 114.400 C 296.000 114.180,295.291 114.000,294.424 114.000 C 293.557 114.000,292.736 114.180,292.600 114.400 M83.473 115.353 C 83.323 115.745,83.211 116.366,83.225 116.733 C 83.242 117.175,83.381 117.074,83.637 116.434 C 83.849 115.903,83.961 115.282,83.885 115.054 C 83.809 114.827,83.624 114.961,83.473 115.353 M302.600 115.200 C 302.464 115.420,302.734 115.600,303.200 115.600 C 303.666 115.600,303.936 115.420,303.800 115.200 C 303.664 114.980,303.394 114.800,303.200 114.800 C 303.006 114.800,302.736 114.980,302.600 115.200 M82.600 118.800 C 82.448 119.491,82.414 120.147,82.524 120.257 C 82.634 120.367,82.848 119.891,83.000 119.200 C 83.152 118.509,83.186 117.853,83.076 117.743 C 82.966 117.633,82.752 118.109,82.600 118.800 M78.212 119.317 C 78.041 119.712,78.013 120.147,78.151 120.284 C 78.557 120.690,78.884 120.120,78.697 119.331 C 78.532 118.633,78.510 118.632,78.212 119.317 M167.013 121.605 C 172.343 123.890,172.161 124.800,166.371 124.800 C 161.294 124.800,160.092 125.313,158.214 128.281 C 156.884 130.384,156.125 130.471,155.766 128.561 C 154.705 122.901,160.980 119.020,167.013 121.605 M77.200 129.376 C 77.200 131.392,77.364 132.800,77.600 132.800 C 77.833 132.800,78.000 131.475,78.000 129.624 C 78.000 127.877,77.820 126.336,77.600 126.200 C 77.345 126.043,77.200 127.196,77.200 129.376 M133.183 135.138 C 135.447 137.291,135.326 137.766,132.586 137.483 C 128.150 137.026,126.833 137.732,123.237 142.500 C 120.891 145.611,120.232 145.475,120.781 141.995 C 121.925 134.741,128.781 130.950,133.183 135.138 M91.600 148.000 C 91.600 148.220,91.971 148.400,92.424 148.400 C 92.877 148.400,93.136 148.220,93.000 148.000 C 92.864 147.780,92.493 147.600,92.176 147.600 C 91.859 147.600,91.600 147.780,91.600 148.000 M96.400 148.976 C 96.400 149.293,96.580 149.664,96.800 149.800 C 97.020 149.936,97.200 149.677,97.200 149.224 C 97.200 148.771,97.020 148.400,96.800 148.400 C 96.580 148.400,96.400 148.659,96.400 148.976 M199.671 158.137 C 199.186 164.697,196.471 172.699,193.018 177.747 C 192.437 178.598,192.014 179.338,192.080 179.393 C 194.153 181.105,197.575 179.290,198.854 175.800 C 199.760 173.329,202.896 166.945,204.496 164.313 L 205.400 162.826 204.200 161.710 C 203.540 161.096,202.272 159.756,201.382 158.734 L 199.765 156.874 199.671 158.137 M95.600 158.624 C 95.600 159.204,95.773 159.540,96.000 159.400 C 96.220 159.264,96.400 158.803,96.400 158.376 C 96.400 157.949,96.220 157.600,96.000 157.600 C 95.780 157.600,95.600 158.061,95.600 158.624 M298.800 162.424 C 298.800 162.877,298.980 163.136,299.200 163.000 C 299.420 162.864,299.600 162.493,299.600 162.176 C 299.600 161.859,299.420 161.600,299.200 161.600 C 298.980 161.600,298.800 161.971,298.800 162.424 M95.177 166.200 C 94.699 167.060,94.714 169.418,95.195 168.951 C 95.450 168.704,95.600 167.894,95.529 167.151 C 95.458 166.408,95.300 165.980,95.177 166.200 M127.511 180.693 C 128.451 180.778,129.891 180.777,130.711 180.691 C 131.530 180.605,130.760 180.536,129.000 180.537 C 127.240 180.539,126.570 180.609,127.511 180.693 M179.111 180.693 C 180.051 180.778,181.491 180.777,182.311 180.691 C 183.130 180.605,182.360 180.536,180.600 180.537 C 178.840 180.539,178.170 180.609,179.111 180.693 M121.833 181.605 C 120.752 182.028,119.672 182.581,119.433 182.836 C 119.160 183.127,119.370 183.106,120.000 182.778 C 120.550 182.492,121.990 181.939,123.200 181.550 C 124.410 181.161,125.040 180.842,124.600 180.840 C 124.160 180.839,122.915 181.183,121.833 181.605 M133.400 181.200 C 133.926 181.426,132.899 181.555,130.400 181.577 C 125.069 181.623,119.845 183.222,117.309 185.584 C 115.723 187.062,115.805 186.434,117.419 184.748 C 118.697 183.413,118.787 183.231,117.890 183.801 C 113.791 186.403,113.479 191.302,117.296 193.150 C 120.262 194.585,120.593 194.419,121.203 191.184 C 121.821 187.907,122.802 187.443,123.271 190.205 C 123.420 191.082,123.697 192.430,123.886 193.200 L 124.231 194.600 127.581 194.717 C 131.430 194.852,131.422 194.858,131.806 191.544 C 132.091 189.093,132.967 187.778,133.618 188.826 C 133.994 189.432,134.800 192.836,134.800 193.820 C 134.800 194.986,139.823 194.034,141.612 192.529 C 144.662 189.962,139.858 180.728,135.988 181.722 C 135.652 181.808,135.150 181.636,134.872 181.339 C 134.595 181.043,133.971 180.813,133.484 180.828 C 132.635 180.855,132.631 180.870,133.400 181.200 M174.800 181.200 C 174.005 181.714,175.004 181.714,176.200 181.200 L 177.000 180.856 176.200 180.834 C 175.760 180.822,175.130 180.987,174.800 181.200 M184.800 181.200 C 185.217 181.470,184.500 181.590,182.443 181.594 C 175.820 181.608,167.200 186.306,167.200 189.902 C 167.200 190.202,167.020 190.336,166.800 190.200 C 166.580 190.064,166.400 190.202,166.400 190.507 C 166.400 191.707,169.114 193.447,172.084 194.150 C 173.421 194.467,173.992 193.583,174.352 190.634 C 174.526 189.214,174.794 188.573,175.252 188.485 C 175.937 188.354,175.990 188.494,176.795 192.500 L 177.257 194.800 180.828 194.800 C 184.264 194.800,184.400 194.766,184.405 193.900 C 184.410 192.890,185.432 188.835,185.765 188.502 C 186.343 187.924,187.196 189.515,187.433 191.612 C 187.697 193.945,188.199 194.606,189.367 194.157 C 189.855 193.970,189.853 193.745,189.352 192.546 C 188.660 190.891,189.218 187.127,190.495 184.840 C 191.368 183.276,191.373 183.282,188.089 181.771 C 185.983 180.803,183.524 180.376,184.800 181.200 M169.443 184.046 C 167.477 185.776,166.376 187.474,166.436 188.680 C 166.456 189.076,166.640 188.818,166.846 188.107 C 167.226 186.791,169.387 184.309,171.200 183.106 C 171.750 182.741,172.000 182.433,171.756 182.421 C 171.512 182.409,170.471 183.141,169.443 184.046 M98.800 191.200 C 98.800 191.420,99.070 191.600,99.400 191.600 C 99.730 191.600,100.000 191.420,100.000 191.200 C 100.000 190.980,99.730 190.800,99.400 190.800 C 99.070 190.800,98.800 190.980,98.800 191.200 M102.047 254.500 C 102.073 287.115,102.208 316.230,102.347 319.200 L 102.600 324.600 143.600 324.600 L 184.600 324.600 184.847 312.200 C 185.354 286.771,185.239 198.800,184.700 198.802 C 174.601 198.843,167.010 197.558,165.802 195.603 C 165.665 195.381,165.363 195.200,165.132 195.200 C 164.901 195.200,165.136 195.554,165.656 195.987 C 166.599 196.773,166.589 196.773,155.100 196.787 C 148.455 196.794,143.600 196.646,143.600 196.436 C 143.600 196.236,142.925 196.393,142.100 196.784 C 136.348 199.511,118.397 199.202,114.900 196.315 C 114.552 196.027,114.400 196.038,114.400 196.351 C 114.400 196.663,112.558 196.800,108.353 196.800 C 102.504 196.800,102.314 196.774,102.516 196.000 C 102.631 195.560,102.562 195.200,102.363 195.200 C 102.147 195.200,102.019 219.282,102.047 254.500 M222.246 195.526 C 221.910 196.070,218.722 197.492,216.600 198.046 C 212.195 199.194,196.822 198.497,194.469 197.042 C 193.915 196.700,191.006 197.893,190.880 198.515 C 190.813 198.840,191.315 200.703,191.994 202.653 C 192.672 204.604,195.481 212.950,198.234 221.200 C 200.987 229.450,203.563 236.920,203.957 237.800 C 204.352 238.680,205.817 242.820,207.214 247.000 C 208.610 251.180,210.074 255.073,210.468 255.651 C 212.176 258.157,208.845 258.019,265.005 257.905 L 316.071 257.800 316.835 256.856 C 317.256 256.336,317.600 255.474,317.600 254.940 C 317.600 254.072,309.321 228.575,308.398 226.600 C 308.192 226.160,305.740 218.915,302.948 210.500 C 300.157 202.085,297.685 195.200,297.456 195.200 C 297.203 195.200,297.228 195.388,297.520 195.680 C 298.537 196.697,297.719 196.800,288.600 196.800 C 279.081 196.800,278.648 196.746,279.900 195.708 C 280.285 195.388,279.738 195.605,278.685 196.189 C 275.233 198.104,272.882 198.495,264.600 198.532 C 255.797 198.572,253.199 198.108,249.938 195.914 C 248.517 194.958,248.077 195.004,249.256 195.987 C 250.198 196.772,250.172 196.773,235.800 196.773 C 221.428 196.773,221.402 196.772,222.344 195.987 C 222.864 195.554,223.099 195.200,222.868 195.200 C 222.637 195.200,222.357 195.347,222.246 195.526 M97.661 207.000 C 97.365 207.660,96.794 209.190,96.392 210.400 C 95.990 211.610,94.554 215.750,93.200 219.600 C 91.846 223.450,90.404 227.590,89.994 228.800 C 89.584 230.010,88.327 233.610,87.199 236.800 C 86.072 239.990,84.721 243.860,84.196 245.400 C 83.672 246.940,82.694 249.730,82.024 251.600 C 79.811 257.768,80.115 258.000,90.394 258.000 C 96.130 258.000,98.073 257.876,98.216 257.500 C 98.745 256.117,98.192 205.817,97.661 207.000 M188.899 265.500 L 189.000 324.600 243.102 324.701 L 297.205 324.803 297.102 293.385 L 297.000 261.968 254.600 261.884 L 212.200 261.800 210.314 260.691 C 206.724 258.581,206.528 258.086,192.481 215.706 C 190.786 210.595,189.264 206.410,189.099 206.406 C 188.933 206.403,188.843 232.995,188.899 265.500 M132.500 248.300 C 133.240 249.076,133.586 249.921,133.674 251.167 C 133.787 252.753,133.960 253.023,135.359 253.804 C 142.529 257.806,137.768 271.222,129.694 269.764 C 127.114 269.299,124.577 267.432,123.356 265.100 C 122.891 264.213,122.503 264.000,121.351 264.000 C 118.184 264.000,116.171 260.968,117.457 258.134 C 117.859 257.248,118.167 255.551,118.188 254.115 C 118.241 250.327,120.888 248.075,124.583 248.675 C 125.609 248.841,126.151 248.690,126.842 248.047 C 128.247 246.738,131.132 246.867,132.500 248.300 M321.200 254.843 C 321.200 255.553,321.325 256.009,321.477 255.856 C 321.938 255.395,322.015 254.056,321.594 253.797 C 321.366 253.656,321.200 254.097,321.200 254.843 M158.509 255.200 C 159.165 255.716,160.143 256.003,161.263 256.009 C 164.653 256.026,166.661 259.209,164.940 261.836 C 164.317 262.786,164.328 262.941,165.140 264.565 C 168.847 271.988,157.469 280.153,152.399 273.708 C 151.143 272.111,150.400 270.129,150.400 268.374 C 150.400 267.110,150.198 266.726,149.234 266.157 C 146.485 264.533,146.833 260.328,149.809 259.197 C 150.478 258.942,150.899 258.403,151.061 257.595 C 151.622 254.788,156.139 253.336,158.509 255.200 M84.400 324.800 C 84.400 325.020,84.940 325.200,85.600 325.200 C 86.260 325.200,86.800 325.020,86.800 324.800 C 86.800 324.580,86.260 324.400,85.600 324.400 C 84.940 324.400,84.400 324.580,84.400 324.800 M316.000 324.800 C 316.000 325.020,316.461 325.200,317.024 325.200 C 317.604 325.200,317.940 325.027,317.800 324.800 C 317.664 324.580,317.203 324.400,316.776 324.400 C 316.349 324.400,316.000 324.580,316.000 324.800 M320.800 325.600 C 320.800 325.820,321.083 326.000,321.428 326.000 C 321.850 326.000,322.014 326.295,321.928 326.900 C 321.842 327.501,321.567 327.761,321.100 327.682 C 320.715 327.618,320.400 327.753,320.400 327.982 C 320.400 328.672,321.427 328.454,322.200 327.600 C 322.899 326.828,322.899 326.772,322.200 326.000 C 321.418 325.136,320.800 324.959,320.800 325.600 M77.378 326.435 C 77.231 326.674,77.310 327.070,77.555 327.315 C 77.882 327.642,78.000 327.526,78.000 326.880 C 78.000 325.914,77.792 325.765,77.378 326.435 M84.663 328.900 C 84.947 329.363,88.719 329.255,89.016 328.775 C 89.193 328.487,88.500 328.390,86.879 328.475 C 85.559 328.544,84.562 328.735,84.663 328.900 M314.600 328.800 C 314.736 329.020,315.422 329.187,316.124 329.172 C 317.200 329.148,317.274 329.090,316.600 328.800 C 315.484 328.320,314.304 328.320,314.600 328.800 " stroke="none" fill="#d68427" fill-rule="evenodd"></path><path id="path3" d="M290.400 114.434 L 289.000 114.695 290.676 114.747 C 291.598 114.776,292.445 114.650,292.559 114.467 C 292.798 114.080,292.337 114.072,290.400 114.434 M202.000 119.400 C 201.028 120.390,200.323 121.200,200.433 121.200 C 200.543 121.200,201.428 120.390,202.400 119.400 C 203.372 118.410,204.077 117.600,203.967 117.600 C 203.857 117.600,202.972 118.410,202.000 119.400 M273.600 142.525 C 273.600 142.594,274.185 143.179,274.900 143.825 L 276.200 145.000 275.025 143.700 C 273.930 142.488,273.600 142.216,273.600 142.525 M296.975 146.668 C 296.359 147.476,296.059 148.011,296.309 147.856 C 296.821 147.540,298.553 145.200,298.275 145.200 C 298.176 145.200,297.591 145.861,296.975 146.668 M295.375 148.922 C 295.264 149.209,295.226 151.684,295.289 154.422 L 295.404 159.400 295.602 153.899 C 295.797 148.478,295.770 147.891,295.375 148.922 M195.000 150.400 C 195.341 151.060,195.711 151.600,195.821 151.600 C 195.931 151.600,195.741 151.060,195.400 150.400 C 195.059 149.740,194.689 149.200,194.579 149.200 C 194.469 149.200,194.659 149.740,195.000 150.400 M162.976 150.973 C 162.315 151.461,162.283 151.624,162.759 152.073 C 163.220 152.508,163.265 152.508,163.019 152.073 C 162.839 151.756,163.015 151.324,163.460 150.986 C 163.867 150.678,164.099 150.420,163.976 150.413 C 163.854 150.406,163.404 150.658,162.976 150.973 M196.791 153.188 C 197.257 153.841,197.842 154.502,198.091 154.656 C 198.341 154.811,198.041 154.276,197.425 153.468 C 196.088 151.715,195.584 151.492,196.791 153.188 M204.196 156.042 C 205.217 157.275,207.345 159.411,208.926 160.790 L 211.800 163.296 209.400 160.970 C 208.080 159.690,205.952 157.553,204.670 156.222 L 202.340 153.800 204.196 156.042 M294.650 162.450 C 294.317 164.117,294.640 164.440,295.000 162.800 C 295.152 162.109,295.193 161.459,295.091 161.358 C 294.989 161.256,294.791 161.747,294.650 162.450 M164.778 167.500 L 163.400 169.000 164.900 167.622 C 165.725 166.863,166.400 166.188,166.400 166.122 C 166.400 165.816,166.062 166.104,164.778 167.500 M289.578 173.100 L 288.200 174.600 289.700 173.222 C 291.096 171.938,291.384 171.600,291.078 171.600 C 291.012 171.600,290.337 172.275,289.578 173.100 M175.000 177.200 C 173.981 177.638,175.032 177.638,176.400 177.200 C 177.204 176.943,177.243 176.877,176.600 176.868 C 176.160 176.862,175.440 177.011,175.000 177.200 M203.300 177.076 C 203.685 177.176,204.315 177.176,204.700 177.076 C 205.085 176.975,204.770 176.893,204.000 176.893 C 203.230 176.893,202.915 176.975,203.300 177.076 M258.800 177.200 C 257.996 177.457,257.957 177.523,258.600 177.532 C 259.040 177.538,259.760 177.389,260.200 177.200 C 261.219 176.762,260.168 176.762,258.800 177.200 M268.800 177.200 C 270.168 177.638,271.219 177.638,270.200 177.200 C 269.760 177.011,269.040 176.862,268.600 176.868 C 267.957 176.877,267.996 176.943,268.800 177.200 M272.200 178.028 C 272.640 178.202,274.260 178.342,275.800 178.340 C 279.346 178.336,278.758 178.114,274.600 177.888 C 272.827 177.791,271.757 177.854,272.200 178.028 M169.900 179.029 C 168.349 179.870,168.525 180.161,170.100 179.359 C 171.608 178.593,171.875 178.394,171.367 178.416 C 171.165 178.425,170.505 178.701,169.900 179.029 M142.400 180.925 C 142.400 180.994,142.985 181.579,143.700 182.225 L 145.000 183.400 143.825 182.100 C 142.730 180.888,142.400 180.616,142.400 180.925 M217.600 183.325 C 217.600 183.394,218.185 183.979,218.900 184.625 L 220.200 185.800 219.025 184.500 C 217.930 183.288,217.600 183.016,217.600 183.325 M145.455 184.600 C 146.380 186.179,146.400 186.203,146.400 185.711 C 146.400 185.479,146.029 184.864,145.576 184.344 L 144.753 183.400 145.455 184.600 M162.591 188.300 C 162.457 189.125,162.311 190.070,162.268 190.400 C 162.160 191.223,148.277 191.509,147.252 190.709 C 146.671 190.256,146.660 190.277,147.149 190.900 C 147.728 191.638,161.200 191.990,162.239 191.294 C 162.480 191.132,162.787 190.055,162.920 188.900 C 163.198 186.493,162.958 186.054,162.591 188.300 M221.000 189.398 C 221.000 190.565,221.135 191.438,221.300 191.337 C 221.685 191.101,221.680 188.345,221.294 187.738 C 221.132 187.484,221.000 188.231,221.000 189.398 M200.938 189.017 C 200.808 189.357,200.813 189.747,200.951 189.884 C 201.088 190.021,201.200 189.847,201.200 189.496 C 201.200 189.145,201.515 188.776,201.900 188.676 C 202.556 188.504,202.555 188.490,201.887 188.446 C 201.496 188.421,201.068 188.678,200.938 189.017 M224.952 189.800 L 225.000 191.400 235.700 191.410 L 246.400 191.420 235.824 191.303 L 225.248 191.187 225.076 189.694 L 224.905 188.200 224.952 189.800 M278.493 189.600 C 278.493 190.370,278.575 190.685,278.676 190.300 C 278.776 189.915,278.776 189.285,278.676 188.900 C 278.575 188.515,278.493 188.830,278.493 189.600 M193.398 191.937 C 193.834 192.452,194.553 193.059,194.996 193.286 C 195.845 193.721,195.721 193.587,193.803 191.994 C 192.648 191.035,192.634 191.033,193.398 191.937 M213.660 192.620 C 213.601 193.823,214.182 194.800,214.956 194.800 C 215.175 194.800,215.060 194.575,214.701 194.300 C 214.343 194.025,213.976 193.260,213.885 192.600 L 213.720 191.400 213.660 192.620 M268.460 192.467 C 268.334 194.711,268.180 194.800,264.428 194.800 L 260.941 194.800 260.495 193.300 L 260.050 191.800 260.272 193.200 C 260.594 195.231,260.530 195.200,264.410 195.200 C 268.348 195.200,269.033 194.764,268.685 192.480 L 268.520 191.400 268.460 192.467 M277.078 192.613 C 276.460 193.156,276.114 193.600,276.308 193.600 C 276.502 193.600,277.083 193.150,277.600 192.600 C 278.795 191.328,278.531 191.334,277.078 192.613 M203.363 194.490 C 203.438 194.860,204.495 195.000,207.200 195.000 C 209.905 195.000,210.962 194.860,211.037 194.490 C 211.094 194.210,211.049 194.165,210.937 194.390 C 210.821 194.624,209.214 194.800,207.200 194.800 C 205.186 194.800,203.579 194.624,203.463 194.390 C 203.351 194.165,203.307 194.210,203.363 194.490 M127.807 250.378 C 127.227 252.206,128.594 253.573,130.422 252.993 C 132.044 252.478,131.334 249.828,129.534 249.678 C 128.346 249.579,128.018 249.712,127.807 250.378 M121.382 251.782 C 119.754 253.409,120.173 255.200,122.181 255.200 C 123.779 255.200,124.800 254.152,124.800 252.511 C 124.800 250.572,122.980 250.184,121.382 251.782 M126.589 256.989 C 123.793 259.786,124.124 263.729,127.362 266.198 C 131.272 269.181,135.485 266.777,136.643 260.902 C 137.669 255.700,130.622 252.957,126.589 256.989 M154.300 256.676 C 153.400 256.911,152.961 258.631,153.604 259.405 C 154.748 260.783,157.600 259.707,157.600 257.899 C 157.600 256.556,156.425 256.120,154.300 256.676 M119.751 258.618 C 118.851 259.993,119.625 261.600,121.188 261.600 C 122.521 261.600,123.200 260.926,123.200 259.600 C 123.200 257.478,120.923 256.830,119.751 258.618 M160.638 258.522 C 159.139 259.619,160.733 262.339,162.300 261.357 C 163.646 260.514,163.122 258.000,161.600 258.000 C 161.464 258.000,161.031 258.235,160.638 258.522 M150.300 261.357 C 148.646 262.612,150.144 265.393,151.953 264.425 C 153.057 263.835,153.302 262.816,152.600 261.744 C 151.903 260.681,151.320 260.582,150.300 261.357 M156.487 262.912 C 150.506 264.783,152.205 274.898,158.308 273.753 C 160.011 273.434,163.410 270.314,163.812 268.700 C 164.702 265.131,160.361 261.701,156.487 262.912 " stroke="none" fill="#11a0fc" fill-rule="evenodd"></path><path id="path4" d="M185.600 83.325 C 185.600 83.394,186.185 83.979,186.900 84.625 L 188.200 85.800 187.025 84.500 C 185.930 83.288,185.600 83.016,185.600 83.325 M191.000 88.400 C 192.083 89.500,193.060 90.400,193.170 90.400 C 193.280 90.400,192.483 89.500,191.400 88.400 C 190.317 87.300,189.340 86.400,189.230 86.400 C 189.120 86.400,189.917 87.300,191.000 88.400 M228.503 90.602 C 226.515 93.013,222.653 101.587,223.275 102.208 C 223.387 102.320,224.840 101.594,226.505 100.593 C 230.074 98.448,230.400 97.810,230.400 92.964 C 230.400 89.085,230.081 88.687,228.503 90.602 M193.800 94.200 C 193.800 95.588,193.932 96.516,194.094 96.262 C 194.256 96.008,194.388 95.080,194.388 94.200 C 194.388 93.320,194.256 92.392,194.094 92.138 C 193.932 91.884,193.800 92.812,193.800 94.200 M191.878 100.205 C 191.512 100.972,191.295 101.600,191.396 101.600 C 191.670 101.600,192.884 99.151,192.701 98.968 C 192.614 98.881,192.244 99.438,191.878 100.205 M171.628 106.200 C 171.628 106.420,171.886 107.050,172.200 107.600 C 172.514 108.150,172.772 108.420,172.772 108.200 C 172.772 107.980,172.514 107.350,172.200 106.800 C 171.886 106.250,171.628 105.980,171.628 106.200 M175.215 106.600 C 175.217 106.820,175.586 107.450,176.036 108.000 C 176.579 108.664,176.715 108.731,176.440 108.200 C 175.766 106.895,175.212 106.172,175.215 106.600 M183.020 113.177 C 182.633 113.605,181.841 114.028,181.258 114.118 L 180.200 114.280 181.230 114.340 C 181.868 114.377,182.618 114.019,183.200 113.400 C 183.717 112.850,184.046 112.400,183.932 112.400 C 183.817 112.400,183.407 112.750,183.020 113.177 M176.299 115.005 C 176.777 115.894,178.741 117.830,178.898 117.568 C 178.954 117.476,178.296 116.682,177.435 115.805 C 176.575 114.928,176.063 114.568,176.299 115.005 M186.041 115.700 C 186.137 115.755,187.112 116.610,188.207 117.600 L 190.200 119.400 188.417 117.500 C 187.436 116.455,186.461 115.600,186.250 115.600 C 186.039 115.600,185.945 115.645,186.041 115.700 M101.949 126.200 C 102.165 126.640,102.634 127.360,102.993 127.800 L 103.644 128.600 103.251 127.800 C 103.035 127.360,102.566 126.640,102.207 126.200 L 101.556 125.400 101.949 126.200 M155.701 127.400 C 155.705 128.280,155.787 128.593,155.883 128.095 C 155.979 127.598,155.975 126.878,155.875 126.495 C 155.775 126.113,155.696 126.520,155.701 127.400 M297.336 129.109 C 292.008 131.926,291.531 133.502,294.052 139.941 C 294.716 141.637,297.672 137.228,299.795 131.375 C 301.165 127.597,300.811 127.271,297.336 129.109 M107.206 129.619 C 107.203 129.739,107.826 130.999,108.591 132.419 C 109.356 133.838,109.986 134.859,109.991 134.687 C 110.001 134.353,108.308 131.003,107.622 130.000 C 107.397 129.670,107.209 129.498,107.206 129.619 M105.228 131.800 C 105.228 132.020,105.486 132.650,105.800 133.200 C 106.114 133.750,106.372 134.020,106.372 133.800 C 106.372 133.580,106.114 132.950,105.800 132.400 C 105.486 131.850,105.228 131.580,105.228 131.800 M87.600 142.782 C 87.930 143.005,88.545 143.191,88.967 143.194 C 89.990 143.202,89.671 142.973,88.200 142.644 C 87.324 142.448,87.162 142.485,87.600 142.782 M92.500 143.876 C 92.885 143.976,93.515 143.976,93.900 143.876 C 94.285 143.775,93.970 143.693,93.200 143.693 C 92.430 143.693,92.115 143.775,92.500 143.876 M96.500 144.276 C 96.885 144.376,97.515 144.376,97.900 144.276 C 98.285 144.175,97.970 144.093,97.200 144.093 C 96.430 144.093,96.115 144.175,96.500 144.276 M101.513 144.695 C 102.676 144.776,104.476 144.776,105.513 144.693 C 106.551 144.611,105.600 144.545,103.400 144.546 C 101.200 144.547,100.351 144.614,101.513 144.695 M236.000 147.330 C 236.000 148.583,240.065 151.200,242.012 151.200 C 244.280 151.200,242.720 148.301,239.874 147.225 C 238.267 146.618,236.000 146.680,236.000 147.330 M100.958 148.566 C 100.838 148.878,100.817 149.643,100.910 150.266 C 101.055 151.232,101.089 151.180,101.140 149.918 L 101.200 148.437 103.900 148.297 L 106.600 148.157 103.887 148.078 C 101.863 148.020,101.120 148.144,100.958 148.566 M156.000 151.404 C 156.000 151.956,157.133 154.793,158.033 156.495 C 158.519 157.414,158.497 157.600,157.900 157.598 C 157.625 157.597,156.680 156.342,155.800 154.810 C 154.003 151.681,153.533 151.451,152.629 153.261 C 151.774 154.976,151.830 155.749,153.046 159.002 C 153.621 160.541,154.186 162.224,154.301 162.741 C 155.392 167.671,163.298 167.549,164.229 162.587 C 164.693 160.111,160.011 151.619,157.864 151.043 C 156.472 150.669,156.000 150.761,156.000 151.404 M100.493 154.800 C 100.493 155.570,100.575 155.885,100.676 155.500 C 100.776 155.115,100.776 154.485,100.676 154.100 C 100.575 153.715,100.493 154.030,100.493 154.800 M100.114 158.600 C 100.117 159.700,100.195 160.103,100.287 159.495 C 100.379 158.886,100.377 157.986,100.282 157.495 C 100.187 157.003,100.111 157.500,100.114 158.600 M200.400 171.684 C 200.400 171.804,200.128 172.554,199.795 173.351 C 199.462 174.148,199.279 174.800,199.389 174.800 C 199.706 174.800,200.833 171.900,200.605 171.672 C 200.492 171.559,200.400 171.565,200.400 171.684 M194.888 179.823 C 194.399 180.166,193.791 180.318,193.537 180.161 C 193.252 179.985,193.185 180.052,193.362 180.338 C 193.749 180.965,194.033 180.913,195.200 180.000 C 196.392 179.068,196.157 178.935,194.888 179.823 M106.296 188.300 C 107.474 189.455,108.649 190.400,108.908 190.400 C 109.166 190.400,108.933 190.103,108.389 189.741 C 107.845 189.378,106.670 188.433,105.778 187.641 C 104.885 186.848,105.119 187.145,106.296 188.300 M142.793 189.319 L 142.985 191.400 143.118 189.646 C 143.191 188.681,143.105 187.744,142.926 187.565 C 142.747 187.385,142.687 188.175,142.793 189.319 M187.293 192.400 C 187.293 193.170,187.375 193.485,187.476 193.100 C 187.576 192.715,187.576 192.085,187.476 191.700 C 187.375 191.315,187.293 191.630,187.293 192.400 M134.561 193.597 C 134.586 194.243,134.849 194.615,135.308 194.656 C 135.757 194.696,135.802 194.651,135.432 194.535 C 135.111 194.433,134.775 193.957,134.686 193.475 C 134.551 192.754,134.530 192.776,134.561 193.597 M184.454 193.500 L 184.400 194.800 180.829 194.800 C 177.984 194.800,177.220 194.676,177.070 194.192 C 176.938 193.766,176.901 193.796,176.945 194.292 C 177.001 194.904,177.509 195.016,180.711 195.115 C 184.694 195.239,185.054 195.059,184.686 193.129 C 184.551 192.422,184.496 192.510,184.454 193.500 M170.400 193.982 C 170.730 194.205,171.345 194.391,171.767 194.394 C 172.790 194.402,172.471 194.173,171.000 193.844 C 170.124 193.648,169.962 193.685,170.400 193.982 M131.200 194.333 C 131.200 194.645,130.102 194.827,127.900 194.880 L 124.600 194.961 127.762 195.098 C 130.686 195.226,132.175 194.841,131.473 194.140 C 131.323 193.990,131.200 194.077,131.200 194.333 M127.100 198.693 C 128.035 198.777,129.565 198.777,130.500 198.693 C 131.435 198.609,130.670 198.540,128.800 198.540 C 126.930 198.540,126.165 198.609,127.100 198.693 M179.100 198.693 C 180.035 198.777,181.565 198.777,182.500 198.693 C 183.435 198.609,182.670 198.540,180.800 198.540 C 178.930 198.540,178.165 198.609,179.100 198.693 M205.500 198.693 C 206.435 198.777,207.965 198.777,208.900 198.693 C 209.835 198.609,209.070 198.540,207.200 198.540 C 205.330 198.540,204.565 198.609,205.500 198.693 M262.700 198.693 C 263.635 198.777,265.165 198.777,266.100 198.693 C 267.035 198.609,266.270 198.540,264.400 198.540 C 262.530 198.540,261.765 198.609,262.700 198.693 " stroke="none" fill="#db1e41" fill-rule="evenodd"></path></g></svg>